<?xml version="1.0" encoding="utf-8"?>
<!-- Svg Vector Icons : http://www.onlinewebfonts.com/icon -->
<!DOCTYPE svg PUBLIC "-//W3C//DTD SVG 1.1//EN" "http://www.w3.org/Graphics/SVG/1.1/DTD/svg11.dtd">
<svg version="1.1" xmlns="http://www.w3.org/2000/svg" xmlns:xlink="http://www.w3.org/1999/xlink" x="0px" y="0px" viewBox="0 0 256 256" enable-background="new 0 0 256 256" xml:space="preserve">
<metadata> Svg Vector Icons : http://www.onlinewebfonts.com/icon </metadata>
<g><g><path fill="#000000" d="M130.7,139.1L59.2,81.6c0.4-0.1,0.7-0.2,1.1-0.2h140.9c0.4,0,0.7,0.1,1.2,0.2L130.7,139.1L130.7,139.1z M207.3,175.5l-50.8-49l50.7-40.8c0.2,0.6,0.4,1.2,0.4,1.8V174C207.6,174.5,207.4,175,207.3,175.5L207.3,175.5z M54.2,175.5c-0.1-0.5-0.3-1-0.3-1.5V87.5c0-0.7,0.2-1.3,0.4-1.9l50.8,40.8L54.2,175.5L54.2,175.5z M201.2,180.1H60.3c-0.6,0-1-0.2-1.5-0.3l51.2-49.4l18.7,15c0.6,0.5,1.3,0.7,2,0.7s1.4-0.2,2-0.7l18.7-15l51.2,49.4C202.2,180,201.7,180.1,201.2,180.1L201.2,180.1z"/><path fill="#000000" d="M128,236c59.5,0,108-48.4,108-108c0-59.5-48.4-108-108-108C68.5,20,20,68.5,20,128C20,187.5,68.5,236,128,236 M128,246c-65.2,0-118-52.8-118-118C10,62.8,62.8,10,128,10c65.2,0,118,52.8,118,118C246,193.2,193.2,246,128,246L128,246L128,246z"/></g></g>
</svg>